<?xml version="1.0" encoding="UTF-8"?>
<svg version="1.1" xmlns="http://www.w3.org/2000/svg" width="32" height="32">
<path d="M0 0 C10.56 0 21.12 0 32 0 C32 10.56 32 21.12 32 32 C21.44 32 10.88 32 0 32 C0 21.44 0 10.88 0 0 Z " fill="#FEFEFE" transform="translate(0,0)"/>
<path d="M0 0 C10.56 0 21.12 0 32 0 C32 10.56 32 21.12 32 32 C27.71 32 23.42 32 19 32 C22 30 22 30 24.5 28.6875 C27.5247375 26.64580219 28.66523555 25.41106471 30 22 C30.11044966 18.07903713 30.10364288 14.40209279 27.61328125 11.23828125 C25.38555298 9.52837844 23.73126712 9.77854591 21 10 C20.6596875 10.9590625 20.6596875 10.9590625 20.3125 11.9375 C19 14 19 14 16.625 14.9375 C14 15 14 15 11.6875 13.9375 C10 12 10 12 9.5625 9 C10.04608334 5.68399997 10.38825331 4.95734931 13 3 C17.60582971 2.52561679 21.25627045 3.49912092 25.0625 6.0625 C25.701875 6.701875 26.34125 7.34125 27 8 C24.20579508 4.08396696 24.20579508 4.08396696 20 2 C17.77181559 1.93062938 15.54165476 1.91542916 13.3125 1.9375 C12.13300781 1.94652344 10.95351562 1.95554688 9.73828125 1.96484375 C8.83464844 1.97644531 7.93101562 1.98804687 7 2 C7 2.66 7 3.32 7 4 C5.33333333 5.66666667 3.66666667 7.33333333 2 9 C1.34 10.32 0.68 11.64 0 13 C0 8.71 0 4.42 0 0 Z " fill="#3A0270" transform="translate(0,0)"/>
<path d="M0 0 C2.375 0.875 2.375 0.875 4.375 3.875 C3.81293073 8.37155414 2.89752237 11.89440415 -0.625 14.875 C-3.37578884 15.79192961 -4.98448913 15.98386083 -7.8125 15.9375 C-9.6996875 15.9065625 -9.6996875 15.9065625 -11.625 15.875 C-11.026875 15.58625 -10.42875 15.2975 -9.8125 15 C-7.43172208 13.82757974 -7.43172208 13.82757974 -4.625 11.875 C-4.955 11.318125 -5.285 10.76125 -5.625 10.1875 C-6.80317092 7.46297975 -7.07681189 5.81177726 -6.625 2.875 C-4.39928105 0.40197895 -3.34204055 -0.15914479 0 0 Z " fill="#38006F" transform="translate(23.625,14.125)"/>
<path d="M0 0 C0.165 0.598125 0.33 1.19625 0.5 1.8125 C2.26752452 4.39013993 3.10087587 4.52364565 6 5.4375 C9.8075273 6.71129095 9.8075273 6.71129095 11.625 9.4375 C12 12 12 12 11.4375 14.25 C10 16 10 16 7.625 16.9375 C5 17 5 17 2.875 16.125 C0.0070203 12.874623 -1.2485607 9.24823606 -2 5 C-1.1875 1.9375 -1.1875 1.9375 0 0 Z " fill="#38006F" transform="translate(3,9)"/>
<path d="M0 0 C4 5 4 5 4.9609375 7.203125 C6.41394046 9.71583688 7.88328862 9.96665389 10.625 10.75 C11.85089844 11.11351562 11.85089844 11.11351562 13.1015625 11.484375 C13.72804688 11.65453125 14.35453125 11.8246875 15 12 C15 12.33 15 12.66 15 13 C10.05 13 5.1 13 0 13 C0 8.71 0 4.42 0 0 Z " fill="#38006F" transform="translate(0,19)"/>
<path d="M0 0 C0.33 0 0.66 0 1 0 C1 4.62 1 9.24 1 14 C-3.29 14 -7.58 14 -12 14 C-9 12 -9 12 -6.5 10.6875 C-2.99921804 8.32447218 -1.50532895 5.69974282 -0.3125 1.6875 C-0.209375 1.130625 -0.10625 0.57375 0 0 Z " fill="#38006F" transform="translate(31,18)"/>
</svg>
