<?xml version="1.0" encoding="UTF-8"?>
<svg version="1.1" xmlns="http://www.w3.org/2000/svg" width="32" height="32">
<path d="M0 0 C2.88671875 1.7578125 2.88671875 1.7578125 5 4 C5.41796875 6.21875 5.41796875 6.21875 5.1875 8.5 C4.86036983 12.10460412 5.32340018 13.81762374 7 17 C7.65553869 23.8831563 7.65553869 23.8831563 5.3125 27.875 C0.62209376 32.18510303 -4.20091262 32.42304651 -10.33203125 32.33203125 C-14.58912184 31.80223227 -16.98046816 30.01953184 -20 27 C-20.23728814 20.47457627 -20.23728814 20.47457627 -19 18 C-19.33 17.34 -19.66 16.68 -20 16 C-20.66258522 11.81366608 -21.00123733 7.80434996 -18.89453125 4.0078125 C-13.8271228 -1.22225351 -6.84622772 -1.3345811 0 0 Z " fill="#040202" transform="translate(23,0)"/>
<path d="M0 0 C2.4375 1 2.4375 1 4 2 C4 2.66 4 3.32 4 4 C1.36 3.34 -1.28 2.68 -4 2 C-2.68823998 3.64642317 -1.3755713 5.29212243 -0.0625 6.9375 C0.66839844 7.85402344 1.39929688 8.77054688 2.15234375 9.71484375 C3.51938711 11.40851269 3.51938711 11.40851269 5 13 C5.3125 16.375 5.3125 16.375 5 20 C2.8010872 22.24515162 1.43515502 22.94126355 -1.69140625 23.36328125 C-3.11259766 23.33814453 -3.11259766 23.33814453 -4.5625 23.3125 C-5.51253906 23.30863281 -6.46257813 23.30476563 -7.44140625 23.30078125 C-10 23 -10 23 -13 21 C-13 20.34 -13 19.68 -13 19 C-9.7 19.99 -6.4 20.98 -3 22 C-3.95712891 20.91332031 -3.95712891 20.91332031 -4.93359375 19.8046875 C-5.75988281 18.83789062 -6.58617187 17.87109375 -7.4375 16.875 C-8.26121094 15.92367188 -9.08492187 14.97234375 -9.93359375 13.9921875 C-12.13227963 10.80845709 -12.85945179 8.84345285 -13 5 C-9.14335077 0.07944754 -6.09547889 -0.31528339 0 0 Z " fill="#996559" transform="translate(20,4)"/>
</svg>
