<svg xmlns="http://www.w3.org/2000/svg" width="32" height="32" viewBox="0 0 32 32">
<g>
<path d="M 0.00 21.70 L 0.00 0.00 L 21.70 0.00 L 25.02 2.25 C26.84,3.49 29.05,5.95 29.92,7.73 C30.79,9.50 31.61,10.96 31.75,10.98 C31.89,10.99 32.00,8.52 32.00,5.50 L 32.00 32.00 L 11.47 32.00 L 7.98 30.15 C6.07,29.13 3.49,26.81 2.25,25.00 ZM 7.90 27.73 C13.70,31.61 20.35,30.69 26.25,25.19 C29.18,22.46 29.73,21.00 27.83,21.00 C27.19,21.00 26.94,21.28 27.28,21.61 C28.16,22.49 22.68,26.87 19.17,28.09 C15.43,29.39 9.07,27.84 6.50,25.00 C4.71,23.02 4.75,23.00 11.73,23.00 C17.14,23.00 19.32,22.56 21.10,21.12 C23.14,19.47 23.28,18.91 22.26,16.68 C21.32,14.60 20.28,14.06 16.80,13.81 C9.86,13.31 12.33,11.53 20.40,11.21 C27.70,10.92 27.82,10.96 28.82,13.71 C29.84,16.50 29.84,16.50 29.92,14.00 C30.01,10.85 26.87,5.61 23.59,3.46 C17.39,-0.59 8.19,1.12 3.91,7.12 C1.20,10.93 2.99,10.85 5.81,7.04 C9.83,1.60 20.01,1.04 24.51,6.01 C26.29,7.98 26.24,8.00 18.69,8.00 C12.09,8.00 10.93,8.27 10.00,10.00 C9.24,11.42 9.24,12.58 9.99,13.99 C10.98,15.84 12.42,16.46 17.50,17.22 C18.60,17.39 19.50,17.97 19.50,18.51 C19.50,19.06 15.81,19.63 11.25,19.79 C11.06,19.80 10.87,19.80 10.69,19.81 C6.22,19.97 4.16,20.04 3.29,19.06 C2.55,18.22 2.69,16.60 2.94,13.58 C2.95,13.44 2.96,13.29 2.98,13.14 C3.10,11.66 2.77,11.03 2.09,11.45 C0.44,12.47 0.79,18.08 2.75,21.98 C3.71,23.89 6.03,26.48 7.90,27.73 ZM 22.00 30.88 C19.92,31.71 20.55,31.88 25.75,31.94 L 32.00 32.00 L 31.96 25.75 C31.92,19.70 31.88,19.59 30.59,22.50 C29.01,26.05 25.48,29.49 22.00,30.88 ZM 0.00 0.00 L 0.01 9.50 L 1.90 6.64 C2.93,5.07 5.07,2.93 6.64,1.90 L 9.50 0.01 ZM 5.42 17.65 C5.98,19.12 9.18,19.22 9.03,17.75 C8.64,13.95 7.53,10.99 6.62,11.29 C5.30,11.72 4.59,15.50 5.42,17.65 ZM 25.00 18.28 C25.00,20.61 26.69,19.54 27.03,17.00 C27.43,14.09 26.98,13.00 25.39,13.00 C24.34,13.00 23.99,13.54 24.39,14.58 C24.73,15.45 25.00,17.12 25.00,18.28 ZM 28.00 19.06 C28.00,19.58 28.45,20.00 29.00,20.00 C29.55,20.00 30.00,19.30 30.00,18.44 C30.00,17.58 29.55,17.16 29.00,17.50 C28.45,17.84 28.00,18.54 28.00,19.06 Z" fill="rgb(13,1,0)"/>
<path d="M 7.90 27.73 C6.03,26.48 3.71,23.89 2.75,21.98 C0.79,18.08 0.44,12.47 2.09,11.45 C2.77,11.03 3.10,11.66 2.98,13.14 C2.96,13.29 2.95,13.44 2.94,13.58 C2.69,16.60 2.55,18.22 3.29,19.06 C4.16,20.04 6.22,19.97 10.69,19.81 C10.87,19.80 11.06,19.80 11.25,19.79 C15.81,19.63 19.50,19.06 19.50,18.51 C19.50,17.97 18.60,17.39 17.50,17.22 C12.42,16.46 10.98,15.84 9.99,13.99 C9.24,12.58 9.24,11.42 10.00,10.00 C10.93,8.27 12.09,8.00 18.69,8.00 C26.24,8.00 26.29,7.98 24.51,6.01 C20.01,1.04 9.83,1.60 5.81,7.04 C2.99,10.85 1.20,10.93 3.91,7.12 C8.19,1.12 17.39,-0.59 23.59,3.46 C26.87,5.61 30.01,10.85 29.92,14.00 C29.84,16.50 29.84,16.50 28.82,13.71 C27.82,10.96 27.70,10.92 20.40,11.21 C12.33,11.53 9.86,13.31 16.80,13.81 C20.28,14.06 21.32,14.60 22.26,16.68 C23.28,18.91 23.14,19.47 21.10,21.12 C19.32,22.56 17.14,23.00 11.73,23.00 C4.75,23.00 4.71,23.02 6.50,25.00 C9.07,27.84 15.43,29.39 19.17,28.09 C22.68,26.87 28.16,22.49 27.28,21.61 C26.94,21.28 27.19,21.00 27.83,21.00 C29.73,21.00 29.18,22.46 26.25,25.19 C20.35,30.69 13.70,31.61 7.90,27.73 ZM 28.00 19.06 C28.00,18.54 28.45,17.84 29.00,17.50 C29.55,17.16 30.00,17.58 30.00,18.44 C30.00,19.30 29.55,20.00 29.00,20.00 C28.45,20.00 28.00,19.58 28.00,19.06 Z" fill="rgb(140,113,108)"/>
<path d="M 0.00 26.85 L 0.00 21.70 L 2.25 25.00 C3.49,26.81 6.07,29.13 7.98,30.15 L 11.47 32.00 L 5.73 32.00 L 0.00 32.00 L 0.00 26.85 ZM 22.00 30.88 C25.48,29.49 29.01,26.05 30.59,22.50 C31.88,19.59 31.92,19.70 31.96,25.75 L 32.00 32.00 L 25.75 31.94 C20.55,31.88 19.92,31.71 22.00,30.88 ZM 25.00 18.28 C25.00,17.12 24.73,15.45 24.39,14.58 C23.99,13.54 24.34,13.00 25.39,13.00 C26.98,13.00 27.43,14.09 27.03,17.00 C26.69,19.54 25.00,20.61 25.00,18.28 ZM 5.42 17.65 C4.59,15.50 5.30,11.72 6.62,11.29 C7.53,10.99 8.64,13.95 9.03,17.75 C9.18,19.22 5.98,19.12 5.42,17.65 ZM 29.92 7.73 C29.05,5.95 26.84,3.49 25.02,2.25 L 21.70 -0.00 L 26.85 -0.00 L 32.00 0.00 L 32.00 5.50 C32.00,8.52 31.89,10.99 31.75,10.98 C31.61,10.96 30.79,9.50 29.92,7.73 ZM 0.01 4.75 L 0.00 0.00 L 4.75 0.01 L 9.50 0.01 L 6.64 1.90 C5.07,2.93 2.93,5.07 1.90,6.64 L 0.01 9.50 L 0.01 4.75 Z" fill="rgb(251,250,250)"/>
</g>
</svg>